<svg xmlns="http://www.w3.org/2000/svg" xmlns:xlink="http://www.w3.org/1999/xlink" contentStyleType="text/css" data-diagram-type="SEQUENCE" height="337px" preserveAspectRatio="none" style="width:622px;height:337px;background:#FFFFFF;" version="1.1" viewBox="0 0 622 337" width="622px" zoomAndPan="magnify"><title>Flow - ci_pipeline (melbourne)</title><defs/><g><text fill="#000000" font-family="sans-serif" font-size="14" font-weight="bold" lengthAdjust="spacing" textLength="221.0947" x="199.7961" y="28.5352">Flow - ci_pipeline (melbourne)</text><g><title>Developer</title><rect fill="#000000" fill-opacity="0.00000" height="137.2422" width="8" x="38.1592" y="118.9766"/><line style="stroke:#181818;stroke-width:0.5;stroke-dasharray:5,5;" x1="42" x2="42" y1="118.9766" y2="256.2188"/></g><g><title>gitlab</title><rect fill="#000000" fill-opacity="0.00000" height="137.2422" width="8" x="220.6919" y="118.9766"/><line style="stroke:#181818;stroke-width:0.5;stroke-dasharray:5,5;" x1="224.3906" x2="224.3906" y1="118.9766" y2="256.2188"/></g><g><title>gitlab-runner</title><rect fill="#000000" fill-opacity="0.00000" height="137.2422" width="8" x="328.4937" y="118.9766"/><line style="stroke:#181818;stroke-width:0.5;stroke-dasharray:5,5;" x1="332.481" x2="332.481" y1="118.9766" y2="256.2188"/></g><g><title>netbox</title><rect fill="#000000" fill-opacity="0.00000" height="137.2422" width="8" x="511.8135" y="118.9766"/><line style="stroke:#181818;stroke-width:0.5;stroke-dasharray:5,5;" x1="514.9526" x2="514.9526" y1="118.9766" y2="256.2188"/></g><g><title>zabbix</title><rect fill="#000000" fill-opacity="0.00000" height="137.2422" width="8" x="582.6807" y="118.9766"/><line style="stroke:#181818;stroke-width:0.5;stroke-dasharray:5,5;" x1="586.6743" x2="586.6743" y1="118.9766" y2="256.2188"/></g><g class="participant participant-head" data-participant="actor_Developer"><text fill="#000000" font-family="sans-serif" font-size="14" lengthAdjust="spacing" textLength="68.3184" x="5" y="116.0234">Developer</text><ellipse cx="42.1592" cy="50.9883" fill="#E2E2F0" rx="8" ry="8" style="stroke:#181818;stroke-width:0.5;"/><path d="M42.1592,58.9883 L42.1592,85.9883 M29.1592,66.9883 L55.1592,66.9883 M42.1592,85.9883 L29.1592,100.9883 M42.1592,85.9883 L55.1592,100.9883" fill="none" style="stroke:#181818;stroke-width:0.5;"/></g><g class="participant participant-tail" data-participant="actor_Developer"><text fill="#000000" font-family="sans-serif" font-size="14" lengthAdjust="spacing" textLength="68.3184" x="5" y="268.7539">Developer</text><ellipse cx="42.1592" cy="280.207" fill="#E2E2F0" rx="8" ry="8" style="stroke:#181818;stroke-width:0.5;"/><path d="M42.1592,288.207 L42.1592,315.207 M29.1592,296.207 L55.1592,296.207 M42.1592,315.207 L29.1592,330.207 M42.1592,315.207 L55.1592,330.207" fill="none" style="stroke:#181818;stroke-width:0.5;"/></g><g class="participant participant-head" data-participant="app_gitlab"><rect fill="#E2E2F0" height="30.4883" rx="2.5" ry="2.5" style="stroke:#181818;stroke-width:0.5;" width="52.6025" x="198.3906" y="87.4883"/><text fill="#000000" font-family="sans-serif" font-size="14" lengthAdjust="spacing" textLength="38.6025" x="205.3906" y="108.0234">gitlab</text></g><g class="participant participant-tail" data-participant="app_gitlab"><rect fill="#E2E2F0" height="30.4883" rx="2.5" ry="2.5" style="stroke:#181818;stroke-width:0.5;" width="52.6025" x="198.3906" y="255.2188"/><text fill="#000000" font-family="sans-serif" font-size="14" lengthAdjust="spacing" textLength="38.6025" x="205.3906" y="275.7539">gitlab</text></g><g class="participant participant-head" data-participant="app_gitlab_runner"><rect fill="#E2E2F0" height="30.4883" rx="2.5" ry="2.5" style="stroke:#181818;stroke-width:0.5;" width="106.0254" x="279.481" y="87.4883"/><text fill="#000000" font-family="sans-serif" font-size="14" lengthAdjust="spacing" textLength="92.0254" x="286.481" y="108.0234">gitlab-runner</text></g><g class="participant participant-tail" data-participant="app_gitlab_runner"><rect fill="#E2E2F0" height="30.4883" rx="2.5" ry="2.5" style="stroke:#181818;stroke-width:0.5;" width="106.0254" x="279.481" y="255.2188"/><text fill="#000000" font-family="sans-serif" font-size="14" lengthAdjust="spacing" textLength="92.0254" x="286.481" y="275.7539">gitlab-runner</text></g><g class="participant participant-head" data-participant="app_netbox"><rect fill="#E2E2F0" height="30.4883" rx="2.5" ry="2.5" style="stroke:#181818;stroke-width:0.5;" width="61.7217" x="484.9526" y="87.4883"/><text fill="#000000" font-family="sans-serif" font-size="14" lengthAdjust="spacing" textLength="47.7217" x="491.9526" y="108.0234">netbox</text></g><g class="participant participant-tail" data-participant="app_netbox"><rect fill="#E2E2F0" height="30.4883" rx="2.5" ry="2.5" style="stroke:#181818;stroke-width:0.5;" width="61.7217" x="484.9526" y="255.2188"/><text fill="#000000" font-family="sans-serif" font-size="14" lengthAdjust="spacing" textLength="47.7217" x="491.9526" y="275.7539">netbox</text></g><g class="participant participant-head" data-participant="app_zabbix"><rect fill="#E2E2F0" height="30.4883" rx="2.5" ry="2.5" style="stroke:#181818;stroke-width:0.5;" width="60.0127" x="556.6743" y="87.4883"/><text fill="#000000" font-family="sans-serif" font-size="14" lengthAdjust="spacing" textLength="46.0127" x="563.6743" y="108.0234">zabbix</text></g><g class="participant participant-tail" data-participant="app_zabbix"><rect fill="#E2E2F0" height="30.4883" rx="2.5" ry="2.5" style="stroke:#181818;stroke-width:0.5;" width="60.0127" x="556.6743" y="255.2188"/><text fill="#000000" font-family="sans-serif" font-size="14" lengthAdjust="spacing" textLength="46.0127" x="563.6743" y="275.7539">zabbix</text></g><g class="message" data-participant-1="actor_Developer" data-participant-2="app_gitlab"><polygon fill="#181818" points="212.6919,146.2871,222.6919,150.2871,212.6919,154.2871,216.6919,150.2871" style="stroke:#181818;stroke-width:1;"/><line style="stroke:#181818;stroke-width:1;" x1="42.1592" x2="218.6919" y1="150.2871" y2="150.2871"/><text fill="#000000" font-family="sans-serif" font-size="13" lengthAdjust="spacing" textLength="158.5327" x="49.1592" y="145.5449">git push / merge request</text></g><g class="message" data-participant-1="app_gitlab" data-participant-2="app_gitlab_runner"><polygon fill="#181818" points="320.4937,175.5977,330.4937,179.5977,320.4937,183.5977,324.4937,179.5977" style="stroke:#181818;stroke-width:1;"/><line style="stroke:#181818;stroke-width:1;" x1="224.6919" x2="326.4937" y1="179.5977" y2="179.5977"/><text fill="#000000" font-family="sans-serif" font-size="13" lengthAdjust="spacing" textLength="83.8018" x="231.6919" y="174.8555">trigger CI job</text></g><g class="message" data-participant-1="app_gitlab_runner" data-participant-2="app_netbox"><polygon fill="#181818" points="503.8135,204.9082,513.8135,208.9082,503.8135,212.9082,507.8135,208.9082" style="stroke:#181818;stroke-width:1;"/><line style="stroke:#181818;stroke-width:1;" x1="332.4937" x2="509.8135" y1="208.9082" y2="208.9082"/><text fill="#000000" font-family="sans-serif" font-size="13" lengthAdjust="spacing" textLength="159.3198" x="339.4937" y="204.166">call API to sync infra data</text></g><g class="message" data-participant-1="app_zabbix" data-participant-2="app_gitlab"><polygon fill="#181818" points="235.6919,234.2188,225.6919,238.2188,235.6919,242.2188,231.6919,238.2188" style="stroke:#181818;stroke-width:1;"/><line style="stroke:#181818;stroke-width:1;" x1="229.6919" x2="585.6807" y1="238.2188" y2="238.2188"/><text fill="#000000" font-family="sans-serif" font-size="13" lengthAdjust="spacing" textLength="145.5645" x="241.6919" y="233.4766">send alert via webhook</text></g><!--SRC=[TOv1JiCm44NtFiLNLh28s6U1X418tN63Q9nCaw6ExTfEqt9weZYWq8YDzMVqlkSbIORnRjo44etKNZmRiOo7WOrsOx3ygE99hAT00s9FhPl4TZYIYQoeIIvWUUitlh1ndkSvelYT2ZLNapJYoIQGztKttoIzK3d-XzHXj7RzBs_AlDaNB2VjhWkPunxv8gqb8paMIjsRbyzRmmfpW1zZZoSC73f6uFF8CQaDzQVpermX1UcwERqUyEcqsYDhRpMlq90nUFau83d4csqWzXW8BILI6_zxnSYs1HaE2HSXJAnxvqxV]--></g></svg>