<svg xmlns="http://www.w3.org/2000/svg" xmlns:xlink="http://www.w3.org/1999/xlink" contentStyleType="text/css" data-diagram-type="CLASS" height="214px" preserveAspectRatio="none" style="width:451px;height:214px;background:#FFFFFF;" version="1.1" viewBox="0 0 451 214" width="451px" zoomAndPan="magnify"><title>Database Schemas - melbourne</title><defs/><g><g class="title" data-source-line="1"><text fill="#000000" font-family="sans-serif" font-size="14" font-weight="bold" lengthAdjust="spacing" textLength="229.7217" x="103.6392" y="23.5352">Database Schemas - melbourne</text></g><!--cluster db_gitlab_db--><g class="cluster" data-entity="db_gitlab_db" data-source-line="4" data-uid="ent0002" id="cluster_db_gitlab_db"><path d="M8.5,43.4883 L109.9404,43.4883 A3.75,3.75 0 0 1 112.4404,45.9883 L119.4404,82.4648 L191.5,82.4648 A2.5,2.5 0 0 1 194,84.9648 L194,205.4483 A2.5,2.5 0 0 1 191.5,207.9483 L8.5,207.9483 A2.5,2.5 0 0 1 6,205.4483 L6,45.9883 A2.5,2.5 0 0 1 8.5,43.4883" fill="none" style="stroke:#000000;stroke-width:1.5;"/><line style="stroke:#000000;stroke-width:1.5;" x1="6" x2="119.4404" y1="82.4648" y2="82.4648"/><text fill="#000000" font-family="sans-serif" font-size="14" font-weight="bold" lengthAdjust="spacing" textLength="69.0156" x="25.7124" y="59.0234">gitlab-db</text><text fill="#000000" font-family="sans-serif" font-size="14" font-weight="bold" lengthAdjust="spacing" textLength="100.4404" x="10" y="75.5117">postgresql 14</text></g><!--cluster db_netbox_db--><g class="cluster" data-entity="db_netbox_db" data-source-line="12" data-uid="ent0004" id="cluster_db_netbox_db"><path d="M220.5,43.4883 L321.9404,43.4883 A3.75,3.75 0 0 1 324.4404,45.9883 L331.4404,82.4648 L441.5,82.4648 A2.5,2.5 0 0 1 444,84.9648 L444,205.4483 A2.5,2.5 0 0 1 441.5,207.9483 L220.5,207.9483 A2.5,2.5 0 0 1 218,205.4483 L218,45.9883 A2.5,2.5 0 0 1 220.5,43.4883" fill="none" style="stroke:#000000;stroke-width:1.5;"/><line style="stroke:#000000;stroke-width:1.5;" x1="218" x2="331.4404" y1="82.4648" y2="82.4648"/><text fill="#000000" font-family="sans-serif" font-size="14" font-weight="bold" lengthAdjust="spacing" textLength="77.0547" x="233.6929" y="59.0234">netbox-db</text><text fill="#000000" font-family="sans-serif" font-size="14" font-weight="bold" lengthAdjust="spacing" textLength="100.4404" x="222" y="75.5117">postgresql 14</text></g><!--class gitlab_db_projects--><g class="entity" data-entity="gitlab_db_projects" data-source-line="5" data-uid="ent0003" id="entity_gitlab_db_projects"><rect fill="#F1F1F1" height="97.4648" rx="2.5" ry="2.5" style="stroke:#181818;stroke-width:0.5;" width="156.9678" x="21.52" y="94.4883"/><ellipse cx="36.52" cy="110.4883" fill="#ADD1B2" rx="11" ry="11" style="stroke:#181818;stroke-width:1;"/><path d="M38.9931,116.6313 Q38.4121,116.9302 37.7729,117.0796 Q37.1338,117.229 36.4282,117.229 Q33.9214,117.229 32.6015,115.5771 Q31.2817,113.9253 31.2817,110.8042 Q31.2817,107.6748 32.6015,106.0229 Q33.9214,104.3711 36.4282,104.3711 Q37.1338,104.3711 37.7812,104.5205 Q38.4287,104.6699 38.9931,104.9688 L38.9931,107.6914 Q38.3623,107.1104 37.7688,106.8406 Q37.1753,106.5708 36.5444,106.5708 Q35.1997,106.5708 34.5149,107.6375 Q33.8301,108.7041 33.8301,110.8042 Q33.8301,112.896 34.5149,113.9626 Q35.1997,115.0293 36.5444,115.0293 Q37.1753,115.0293 37.7688,114.7595 Q38.3623,114.4897 38.9931,113.9087 Z " fill="#000000"/><text fill="#000000" font-family="sans-serif" font-size="14" lengthAdjust="spacing" textLength="124.9678" x="50.52" y="115.7793">gitlab_db_projects</text><line style="stroke:#181818;stroke-width:0.5;" x1="22.52" x2="177.4878" y1="126.4883" y2="126.4883"/><text fill="#000000" font-family="sans-serif" font-size="14" lengthAdjust="spacing" textLength="92.3604" x="27.52" y="144.0234">id : uuid &#171;PK&#187;</text><text fill="#000000" font-family="sans-serif" font-size="14" lengthAdjust="spacing" textLength="77.4375" x="27.52" y="160.5117">name : text</text><text fill="#000000" font-family="sans-serif" font-size="14" lengthAdjust="spacing" textLength="139.3232" x="27.52" y="177">namespace_id : uuid</text><line style="stroke:#181818;stroke-width:0.5;" x1="22.52" x2="177.4878" y1="183.9531" y2="183.9531"/></g><!--class netbox_db_dcim_device--><g class="entity" data-entity="netbox_db_dcim_device" data-source-line="13" data-uid="ent0005" id="entity_netbox_db_dcim_device"><rect fill="#F1F1F1" height="97.4648" rx="2.5" ry="2.5" style="stroke:#181818;stroke-width:0.5;" width="194.3193" x="233.84" y="94.4883"/><ellipse cx="248.84" cy="110.4883" fill="#ADD1B2" rx="11" ry="11" style="stroke:#181818;stroke-width:1;"/><path d="M251.3131,116.6313 Q250.7321,116.9302 250.0929,117.0796 Q249.4538,117.229 248.7482,117.229 Q246.2414,117.229 244.9215,115.5771 Q243.6017,113.9253 243.6017,110.8042 Q243.6017,107.6748 244.9215,106.0229 Q246.2414,104.3711 248.7482,104.3711 Q249.4538,104.3711 250.1012,104.5205 Q250.7487,104.6699 251.3131,104.9688 L251.3131,107.6914 Q250.6823,107.1104 250.0888,106.8406 Q249.4953,106.5708 248.8644,106.5708 Q247.5197,106.5708 246.8349,107.6375 Q246.1501,108.7041 246.1501,110.8042 Q246.1501,112.896 246.8349,113.9626 Q247.5197,115.0293 248.8644,115.0293 Q249.4953,115.0293 250.0888,114.7595 Q250.6823,114.4897 251.3131,113.9087 Z " fill="#000000"/><text fill="#000000" font-family="sans-serif" font-size="14" lengthAdjust="spacing" textLength="162.3193" x="262.84" y="115.7793">netbox_db_dcim_device</text><line style="stroke:#181818;stroke-width:0.5;" x1="234.84" x2="427.1593" y1="126.4883" y2="126.4883"/><text fill="#000000" font-family="sans-serif" font-size="14" lengthAdjust="spacing" textLength="110.1543" x="239.84" y="144.0234">id : integer &#171;PK&#187;</text><text fill="#000000" font-family="sans-serif" font-size="14" lengthAdjust="spacing" textLength="77.4375" x="239.84" y="160.5117">name : text</text><text fill="#000000" font-family="sans-serif" font-size="14" lengthAdjust="spacing" textLength="105.3965" x="239.84" y="177">site_id : integer</text><line style="stroke:#181818;stroke-width:0.5;" x1="234.84" x2="427.1593" y1="183.9531" y2="183.9531"/></g><!--SRC=[VOvDIqCn44Nt-HL3zmK5Lr8AWXjn8tGhX4aofcFpySpCqwBqlnlw7i-wqDKmvrwuHraJmJqgEXI2dTzJHe4rP4gkZgsGaGEN0Hjcy0b5xbGRkr7fmTUouq-2gukAx37K3ouHNZ09cG7z0IF1AlOXTElWdijGHMCZUKjmVRE2FXUSdN8R77mPc9PWONPezPMyoZa4u02tC8xzR3PFZzlj6HRCrB7IKPTV-ZxPfTxvoPpCZrKXTVNujzMK_xPQc0sUimtqpfuknRWeHMh_kGdhh3MNPxDl]--></g></svg>