<svg xmlns="http://www.w3.org/2000/svg" xmlns:xlink="http://www.w3.org/1999/xlink" contentStyleType="text/css" data-diagram-type="DESCRIPTION" height="700px" preserveAspectRatio="none" style="width:419px;height:700px;background:#FFFFFF;" version="1.1" viewBox="0 0 419 700" width="419px" zoomAndPan="magnify"><title>Microservice / Application Dependencies - melbourne</title><defs><filter height="1" id="b1fj4qycw3dp9y0" width="1" x="0" y="0"><feFlood flood-color="#CCE5FF" result="flood"/><feComposite in="SourceGraphic" in2="flood" operator="over"/></filter><filter height="1" id="b1fj4qycw3dp9y1" width="1" x="0" y="0"><feFlood flood-color="#FFDDBB" result="flood"/><feComposite in="SourceGraphic" in2="flood" operator="over"/></filter><filter height="1" id="b1fj4qycw3dp9y2" width="1" x="0" y="0"><feFlood flood-color="#E0E0E0" result="flood"/><feComposite in="SourceGraphic" in2="flood" operator="over"/></filter></defs><g><g class="title" data-source-line="1"><text fill="#000000" font-family="sans-serif" font-size="14" font-weight="bold" lengthAdjust="spacing" textLength="391.2344" x="10" y="23.5352">Microservice / Application Dependencies - melbourne</text></g><!--cluster devtools--><g class="cluster" data-entity="devtools" data-source-line="11" data-uid="ent0002" id="cluster_devtools"><path d="M108.6172,43.4883 L171.4277,43.4883 A3.75,3.75 0 0 1 173.9277,45.9883 L180.9277,65.9766 L247.6172,65.9766 A2.5,2.5 0 0 1 250.1172,68.4766 L250.1172,290.9183 A2.5,2.5 0 0 1 247.6172,293.4183 L108.6172,293.4183 A2.5,2.5 0 0 1 106.1172,290.9183 L106.1172,45.9883 A2.5,2.5 0 0 1 108.6172,43.4883" fill="#CCE5FF" style="stroke:#000000;stroke-width:1.5;"/><line style="stroke:#000000;stroke-width:1.5;" x1="106.1172" x2="180.9277" y1="65.9766" y2="65.9766"/><text fill="#000000" font-family="sans-serif" font-size="14" font-weight="bold" lengthAdjust="spacing" textLength="61.8105" x="110.1172" y="59.0234">devtools</text></g><!--cluster infrastructure--><g class="cluster" data-entity="infrastructure" data-source-line="16" data-uid="ent0005" id="cluster_infrastructure"><path d="M113.6172,461.8883 L214.7979,461.8883 A3.75,3.75 0 0 1 217.2979,464.3883 L224.2979,484.3766 L232.6172,484.3766 A2.5,2.5 0 0 1 235.1172,486.8766 L235.1172,579.8483 A2.5,2.5 0 0 1 232.6172,582.3483 L113.6172,582.3483 A2.5,2.5 0 0 1 111.1172,579.8483 L111.1172,464.3883 A2.5,2.5 0 0 1 113.6172,461.8883" fill="#FFDDBB" style="stroke:#000000;stroke-width:1.5;"/><line style="stroke:#000000;stroke-width:1.5;" x1="111.1172" x2="224.2979" y1="484.3766" y2="484.3766"/><text fill="#000000" font-family="sans-serif" font-size="14" font-weight="bold" lengthAdjust="spacing" textLength="100.1807" x="115.1172" y="477.4234">infrastructure</text></g><!--cluster operations--><g class="cluster" data-entity="operations" data-source-line="20" data-uid="ent0007" id="cluster_operations"><path d="M158.6172,317.4183 L236.9111,317.4183 A3.75,3.75 0 0 1 239.4111,319.9183 L246.4111,339.9066 L315.6172,339.9066 A2.5,2.5 0 0 1 318.1172,342.4066 L318.1172,435.3883 A2.5,2.5 0 0 1 315.6172,437.8883 L158.6172,437.8883 A2.5,2.5 0 0 1 156.1172,435.3883 L156.1172,319.9183 A2.5,2.5 0 0 1 158.6172,317.4183" fill="#E0E0E0" style="stroke:#000000;stroke-width:1.5;"/><line style="stroke:#000000;stroke-width:1.5;" x1="156.1172" x2="246.4111" y1="339.9066" y2="339.9066"/><text fill="#000000" font-family="sans-serif" font-size="14" font-weight="bold" lengthAdjust="spacing" textLength="77.2939" x="160.1172" y="332.9534">operations</text></g><!--entity app_gitlab--><g class="entity" data-entity="app_gitlab" data-source-line="12" data-uid="ent0003" id="entity_app_gitlab"><rect fill="#F1F1F1" height="69.4648" rx="2.5" ry="2.5" style="stroke:#181818;stroke-width:0.5;" width="82.4121" x="136.9072" y="207.9583"/><text fill="#000000" font-family="sans-serif" font-size="14" lengthAdjust="spacing" textLength="38.6025" x="146.9072" y="231.4934">gitlab</text><text fill="#000000" font-family="sans-serif" font-size="14" lengthAdjust="spacing" textLength="44.4063" x="146.9072" y="247.9817">tier: ui</text><text fill="#000000" font-family="sans-serif" font-size="14" lengthAdjust="spacing" textLength="62.4121" x="146.9072" y="264.47">role: scm</text></g><!--entity app_gitlab_runner--><g class="entity" data-entity="app_gitlab_runner" data-source-line="13" data-uid="ent0004" id="entity_app_gitlab_runner"><rect fill="#F1F1F1" height="69.4648" rx="2.5" ry="2.5" style="stroke:#181818;stroke-width:0.5;" width="112.0254" x="122.1072" y="78.4883"/><text fill="#000000" font-family="sans-serif" font-size="14" lengthAdjust="spacing" textLength="92.0254" x="132.1072" y="102.0234">gitlab-runner</text><text fill="#000000" font-family="sans-serif" font-size="14" lengthAdjust="spacing" textLength="78.4971" x="132.1072" y="118.5117">tier: worker</text><text fill="#000000" font-family="sans-serif" font-size="14" lengthAdjust="spacing" textLength="73.2197" x="132.1072" y="135">role: agent</text></g><!--entity app_netbox--><g class="entity" data-entity="app_netbox" data-source-line="17" data-uid="ent0006" id="entity_app_netbox"><rect fill="#F1F1F1" height="69.4648" rx="2.5" ry="2.5" style="stroke:#181818;stroke-width:0.5;" width="92.8984" x="126.6672" y="496.8883"/><text fill="#000000" font-family="sans-serif" font-size="14" lengthAdjust="spacing" textLength="47.7217" x="136.6672" y="520.4234">netbox</text><text fill="#000000" font-family="sans-serif" font-size="14" lengthAdjust="spacing" textLength="57.0254" x="136.6672" y="536.9117">tier: app</text><text fill="#000000" font-family="sans-serif" font-size="14" lengthAdjust="spacing" textLength="72.8984" x="136.6672" y="553.4">role: cmdb</text></g><!--entity app_zabbix--><g class="entity" data-entity="app_zabbix" data-source-line="21" data-uid="ent0008" id="entity_app_zabbix"><rect fill="#F1F1F1" height="69.4648" rx="2.5" ry="2.5" style="stroke:#181818;stroke-width:0.5;" width="130.4688" x="171.8872" y="352.4183"/><text fill="#000000" font-family="sans-serif" font-size="14" lengthAdjust="spacing" textLength="46.0127" x="181.8872" y="375.9534">zabbix</text><text fill="#000000" font-family="sans-serif" font-size="14" lengthAdjust="spacing" textLength="57.0254" x="181.8872" y="392.4417">tier: app</text><text fill="#000000" font-family="sans-serif" font-size="14" lengthAdjust="spacing" textLength="110.4688" x="181.8872" y="408.93">role: monitoring</text></g><!--link app_gitlab to app_netbox--><g class="link" data-entity-1="app_gitlab" data-entity-2="app_netbox" data-source-line="24" data-uid="lnk9" id="link_app_gitlab_app_netbox"><path d="M164.4472,277.6083 C161.0272,287.6783 157.8372,298.8483 156.1172,309.4183 C146.3672,369.2783 150.1272,385.5283 156.1172,445.8883 C157.7972,462.7583 160.0029,475.3796 163.4029,490.7696" fill="none" id="app_gitlab-to-app_netbox" style="stroke:#181818;stroke-width:1;"/><polygon fill="#181818" points="164.6972,496.6283,166.6615,486.9773,163.6186,491.746,158.8499,488.7031,164.6972,496.6283" style="stroke:#181818;stroke-width:1;"/></g><!--link app_gitlab to app_zabbix--><g class="link" data-entity-1="app_gitlab" data-entity-2="app_zabbix" data-source-line="25" data-uid="lnk10" id="link_app_gitlab_app_zabbix"><path d="M192.2472,277.8083 C201.5872,300.3683 211.4931,324.2642 220.8031,346.7642" fill="none" id="app_gitlab-to-app_zabbix" style="stroke:#181818;stroke-width:1;"/><polygon fill="#181818" points="223.0972,352.3083,223.3522,342.4627,221.1855,347.6882,215.96,345.5214,223.0972,352.3083" style="stroke:#181818;stroke-width:1;"/></g><!--link app_zabbix to app_netbox--><g class="link" data-entity-1="app_zabbix" data-entity-2="app_netbox" data-source-line="26" data-uid="lnk11" id="link_app_zabbix_app_netbox"><path d="M221.7872,422.2783 C211.6572,444.8283 200.8863,468.7954 190.7763,491.2954" fill="none" id="app_zabbix-to-app_netbox" style="stroke:#181818;stroke-width:1;"/><polygon fill="#181818" points="188.3172,496.7683,195.6545,490.1984,190.3665,492.2075,188.3573,486.9195,188.3172,496.7683" style="stroke:#181818;stroke-width:1;"/></g><!--link app_gitlab_runner to app_gitlab--><g class="link" data-entity-1="app_gitlab_runner" data-entity-2="app_gitlab" data-source-line="27" data-uid="lnk12" id="link_app_gitlab_runner_app_gitlab"><path d="M178.1172,148.3783 C178.1172,166.8183 178.1172,183.4983 178.1172,201.8783" fill="none" id="app_gitlab_runner-to-app_gitlab" style="stroke:#181818;stroke-width:1;"/><polygon fill="#181818" points="178.1172,207.8783,182.1172,198.8783,178.1172,202.8783,174.1172,198.8783,178.1172,207.8783" style="stroke:#181818;stroke-width:1;"/></g><g class="legend" data-source-line="4"><rect fill="#DDDDDD" height="79.9531" rx="7.5" ry="7.5" style="stroke:#000000;stroke-width:1;" width="171.4238" x="112.1172" y="600.3483"/><line style="stroke:#000000;stroke-width:1;" x1="112.1172" x2="163.5195" y1="613.5924" y2="613.5924"/><line style="stroke:#000000;stroke-width:1;" x1="112.1172" x2="163.5195" y1="615.5924" y2="615.5924"/><text fill="#000000" font-family="sans-serif" font-size="14" lengthAdjust="spacing" textLength="59.7598" x="167.9492" y="618.3834">Domains</text><line style="stroke:#000000;stroke-width:1;" x1="232.1387" x2="283.541" y1="613.5924" y2="613.5924"/><line style="stroke:#000000;stroke-width:1;" x1="232.1387" x2="283.541" y1="615.5924" y2="615.5924"/><text fill="#000000" filter="url(#b1fj4qycw3dp9y0)" font-family="sans-serif" font-size="14" lengthAdjust="spacing" textLength="57.4766" x="121.5469" y="637.3717">devtools</text><text fill="#000000" font-family="sans-serif" font-size="14" lengthAdjust="spacing" textLength="50.9482" x="223.1631" y="637.3717">domain</text><text fill="#000000" filter="url(#b1fj4qycw3dp9y1)" font-family="sans-serif" font-size="14" lengthAdjust="spacing" textLength="92.7568" x="121.5469" y="653.86">infrastructure</text><text fill="#000000" font-family="sans-serif" font-size="14" lengthAdjust="spacing" textLength="50.9482" x="223.1631" y="653.86">domain</text><text fill="#000000" filter="url(#b1fj4qycw3dp9y2)" font-family="sans-serif" font-size="14" lengthAdjust="spacing" textLength="72.3789" x="121.5469" y="670.3483">operations</text><text fill="#000000" font-family="sans-serif" font-size="14" lengthAdjust="spacing" textLength="50.9482" x="223.1631" y="670.3483">domain</text><line style="stroke:#000000;stroke-width:1;" x1="117.1172" x2="278.541" y1="623.8366" y2="623.8366"/><line style="stroke:#000000;stroke-width:1;" x1="117.1172" x2="278.541" y1="640.3248" y2="640.3248"/><line style="stroke:#000000;stroke-width:1;" x1="117.1172" x2="278.541" y1="656.8131" y2="656.8131"/><line style="stroke:#000000;stroke-width:1;" x1="117.1172" x2="278.541" y1="673.3014" y2="673.3014"/><line style="stroke:#000000;stroke-width:1;" x1="117.1172" x2="117.1172" y1="623.8366" y2="673.3014"/><line style="stroke:#000000;stroke-width:1;" x1="218.7334" x2="218.7334" y1="623.8366" y2="673.3014"/><line style="stroke:#000000;stroke-width:1;" x1="278.541" x2="278.541" y1="623.8366" y2="673.3014"/></g><!--SRC=[VL8xRy8m4DxzAqxf7D6b2oAHIaEsJbsHaECSgOLpjcm7-g3_lGuc2I1QPN5yt-i-sKkl45wbiDgXtKk1C8DdOvGKt4jDKA11gf64H0SfjAWgtLb2vdQI3BUy1Q5Remd9l_dF86PHU4wDkeIuTrxhWwG6jbmvP0gRe0eAjvvb6HIwvP8SP1axBYekTlE7bvVLKrdcKEFUQwqSB6Rz83z2VGB3SOIMPL4ibpb8sbhklEs4xop-GrWzzbyEsg0zRNbFFUIBAHapOSGRX6G8ay0v7tmpcFQ7f0brycfDNgATGoVNPBN2EJZH9i0TS6Cs4NEFbzgE2Er0FsYxw_-YH0X0_aPa4mdivoBZTGiXQQpdDYcXh_J7O1Ka1n_HrjLe4r5N-bDfGJisUQlznQjAtjDkDKclRNW7eqF4zWxJMf2c-QNzdScPDXt_vfnB6W7nzXS0]--></g></svg>